<mxfile host="app.diagrams.net" agent="Mozilla/5.0 (Windows NT 10.0; Win64; x64) AppleWebKit/537.36 (KHTML, like Gecko) Chrome/137.0.0.0 Safari/537.36 Edg/137.0.0.0" version="27.1.4">
  <diagram name="Page-1" id="SB6sKbI-OSXxuzdkV2bE">
    <mxGraphModel dx="778" dy="468" grid="1" gridSize="10" guides="1" tooltips="1" connect="1" arrows="1" fold="1" page="1" pageScale="1" pageWidth="850" pageHeight="1100" math="0" shadow="0">
      <root>
        <mxCell id="0" />
        <mxCell id="1" parent="0" />
        <mxCell id="igxR2AVI02_O2V5evjXi-1" value="&lt;b&gt;ADMIN&lt;/b&gt;" style="rounded=0;whiteSpace=wrap;html=1;" parent="1" vertex="1">
          <mxGeometry x="130" y="120" width="130" height="80" as="geometry" />
        </mxCell>
        <mxCell id="igxR2AVI02_O2V5evjXi-2" value="&lt;b&gt;LOGIN&lt;/b&gt;" style="ellipse;whiteSpace=wrap;html=1;aspect=fixed;" parent="1" vertex="1">
          <mxGeometry x="380" y="120" width="80" height="80" as="geometry" />
        </mxCell>
        <mxCell id="igxR2AVI02_O2V5evjXi-3" value="&lt;b&gt;LOGIN DETAILS&lt;/b&gt;" style="html=1;dashed=0;whiteSpace=wrap;shape=partialRectangle;right=0;" parent="1" vertex="1">
          <mxGeometry x="590" y="120" width="130" height="80" as="geometry" />
        </mxCell>
        <mxCell id="igxR2AVI02_O2V5evjXi-4" value="&lt;b&gt;MASTER&lt;/b&gt;" style="ellipse;whiteSpace=wrap;html=1;aspect=fixed;" parent="1" vertex="1">
          <mxGeometry x="380" y="250" width="80" height="80" as="geometry" />
        </mxCell>
        <mxCell id="igxR2AVI02_O2V5evjXi-5" value="&lt;h6&gt;&lt;b&gt;REPOSITORIES&lt;/b&gt;&lt;/h6&gt;" style="ellipse;whiteSpace=wrap;html=1;aspect=fixed;" parent="1" vertex="1">
          <mxGeometry x="385" y="380" width="80" height="80" as="geometry" />
        </mxCell>
        <mxCell id="igxR2AVI02_O2V5evjXi-6" value="&lt;b&gt;REPORT&lt;/b&gt;" style="ellipse;whiteSpace=wrap;html=1;aspect=fixed;" parent="1" vertex="1">
          <mxGeometry x="385" y="500" width="80" height="80" as="geometry" />
        </mxCell>
        <mxCell id="igxR2AVI02_O2V5evjXi-7" value="&lt;b&gt;REPORT&lt;/b&gt;" style="ellipse;whiteSpace=wrap;html=1;aspect=fixed;" parent="1" vertex="1">
          <mxGeometry x="390" y="620" width="80" height="80" as="geometry" />
        </mxCell>
      </root>
    </mxGraphModel>
  </diagram>
</mxfile>
